<svg xmlns="http://www.w3.org/2000/svg" width="200.7" height="35" viewBox="0 0 200.7 35"><rect class="svg__rect" x="0" y="0" width="118.76" height="35" fill="#31C4F3"/><rect class="svg__rect" x="116.76" y="0" width="83.94" height="35" fill="#389AD5"/><path class="svg__text" d="M15.69 22L14.22 22L14.22 13.47L16.14 13.47L18.60 20.01L21.06 13.47L22.97 13.47L22.97 22L21.49 22L21.49 19.19L21.64 15.43L19.12 22L18.06 22L15.55 15.43L15.69 19.19L15.69 22ZM28.49 22L26.95 22L30.17 13.47L31.50 13.47L34.73 22L33.18 22L32.49 20.01L29.18 20.01L28.49 22ZM30.83 15.28L29.60 18.82L32.07 18.82L30.83 15.28ZM40.17 22L38.69 22L38.69 13.47L41.69 13.47Q43.16 13.47 43.97 14.13Q44.77 14.79 44.77 16.05L44.77 16.05Q44.77 16.90 44.35 17.48Q43.94 18.06 43.20 18.37L43.20 18.37L45.12 21.92L45.12 22L43.53 22L41.82 18.71L40.17 18.71L40.17 22ZM40.17 14.66L40.17 17.52L41.69 17.52Q42.44 17.52 42.86 17.15Q43.29 16.77 43.29 16.11L43.29 16.11Q43.29 15.43 42.90 15.05Q42.51 14.68 41.73 14.66L41.73 14.66L40.17 14.66ZM50.64 22L49.16 22L49.16 13.47L52.43 13.47Q53.86 13.47 54.70 14.21Q55.54 14.96 55.54 16.18L55.54 16.18Q55.54 17.44 54.71 18.13Q53.89 18.83 52.41 18.83L52.41 18.83L50.64 18.83L50.64 22ZM50.64 14.66L50.64 17.64L52.43 17.64Q53.22 17.64 53.63 17.27Q54.05 16.90 54.05 16.19L54.05 16.19Q54.05 15.50 53.63 15.09Q53.21 14.68 52.47 14.66L52.47 14.66L50.64 14.66ZM59.39 19.42L59.39 19.42L60.87 19.42Q60.87 20.15 61.35 20.55Q61.83 20.95 62.73 20.95L62.73 20.95Q63.50 20.95 63.89 20.63Q64.28 20.32 64.28 19.80L64.28 19.80Q64.28 19.24 63.88 18.94Q63.49 18.63 62.46 18.32Q61.43 18.01 60.82 17.63L60.82 17.63Q59.65 16.90 59.65 15.72L59.65 15.72Q59.65 14.69 60.49 14.02Q61.33 13.35 62.67 13.35L62.67 13.35Q63.56 13.35 64.26 13.68Q64.96 14.01 65.36 14.61Q65.76 15.22 65.76 15.96L65.76 15.96L64.28 15.96Q64.28 15.29 63.86 14.91Q63.44 14.54 62.66 14.54L62.66 14.54Q61.94 14.54 61.53 14.85Q61.13 15.16 61.13 15.71L61.13 15.71Q61.13 16.18 61.57 16.50Q62.00 16.81 63.00 17.10Q63.99 17.40 64.60 17.78Q65.20 18.16 65.48 18.65Q65.76 19.13 65.76 19.79L65.76 19.79Q65.76 20.86 64.94 21.49Q64.13 22.12 62.73 22.12L62.73 22.12Q61.80 22.12 61.02 21.77Q60.25 21.43 59.82 20.83Q59.39 20.22 59.39 19.42ZM71.73 14.66L69.10 14.66L69.10 13.47L75.86 13.47L75.86 14.66L73.20 14.66L73.20 22L71.73 22L71.73 14.66ZM81.66 18.86L78.79 13.47L80.44 13.47L82.40 17.51L84.37 13.47L86.01 13.47L83.15 18.86L83.15 22L81.66 22L81.66 18.86ZM95.28 22L89.92 22L89.92 13.47L91.40 13.47L91.40 20.82L95.28 20.82L95.28 22ZM104.98 22L99.40 22L99.40 13.47L104.94 13.47L104.94 14.66L100.88 14.66L100.88 17.02L104.39 17.02L104.39 18.19L100.88 18.19L100.88 20.82L104.98 20.82L104.98 22Z" fill="#FFFFFF"/><path class="svg__text" d="M133.33 22L130.95 22L130.95 13.60L134.79 13.60Q135.93 13.60 136.77 13.98Q137.61 14.35 138.07 15.06Q138.52 15.76 138.52 16.71L138.52 16.71Q138.52 17.62 138.10 18.30Q137.67 18.98 136.88 19.36L136.88 19.36L138.69 22L136.15 22L134.62 19.77L133.33 19.77L133.33 22ZM133.33 15.47L133.33 17.93L134.65 17.93Q135.38 17.93 135.75 17.61Q136.12 17.29 136.12 16.71L136.12 16.71Q136.12 16.12 135.75 15.79Q135.38 15.47 134.65 15.47L134.65 15.47L133.33 15.47ZM150.06 22L143.31 22L143.31 13.60L149.90 13.60L149.90 15.44L145.67 15.44L145.67 16.85L149.40 16.85L149.40 18.63L145.67 18.63L145.67 20.17L150.06 20.17L150.06 22ZM156.28 22L153.85 22L157.56 13.60L159.90 13.60L163.62 22L161.15 22L160.49 20.37L156.94 20.37L156.28 22ZM158.72 15.93L157.63 18.61L159.79 18.61L158.72 15.93ZM171.75 22L167.77 22L167.77 13.60L171.75 13.60Q173.13 13.60 174.20 14.12Q175.26 14.63 175.85 15.58Q176.44 16.53 176.44 17.80L176.44 17.80Q176.44 19.07 175.85 20.02Q175.26 20.97 174.20 21.48Q173.13 22 171.75 22L171.75 22ZM170.15 15.50L170.15 20.10L171.65 20.10Q172.73 20.10 173.38 19.49Q174.04 18.88 174.04 17.80L174.04 17.80Q174.04 16.72 173.38 16.11Q172.73 15.50 171.65 15.50L171.65 15.50L170.15 15.50ZM183.30 18.95L180.09 13.60L182.60 13.60L184.59 16.94L186.58 13.60L188.89 13.60L185.67 18.99L185.67 22L183.30 22L183.30 18.95Z" fill="#FFFFFF" x="129.76"/></svg>