<svg xmlns="http://www.w3.org/2000/svg" width="252.15000000000003" height="35" viewBox="0 0 252.15000000000003 35"><rect class="svg__rect" x="0" y="0" width="118.76" height="35" fill="#FC677F"/><rect class="svg__rect" x="116.76" y="0" width="135.39000000000001" height="35" fill="#C13B3A"/><path class="svg__text" d="M15.69 22L14.22 22L14.22 13.47L16.14 13.47L18.60 20.01L21.06 13.47L22.97 13.47L22.97 22L21.49 22L21.49 19.19L21.64 15.43L19.12 22L18.06 22L15.55 15.43L15.69 19.19L15.69 22ZM28.49 22L26.95 22L30.17 13.47L31.50 13.47L34.73 22L33.18 22L32.49 20.01L29.18 20.01L28.49 22ZM30.83 15.28L29.60 18.82L32.07 18.82L30.83 15.28ZM40.17 22L38.69 22L38.69 13.47L41.69 13.47Q43.16 13.47 43.97 14.13Q44.77 14.79 44.77 16.05L44.77 16.05Q44.77 16.90 44.35 17.48Q43.94 18.06 43.20 18.37L43.20 18.37L45.12 21.92L45.12 22L43.53 22L41.82 18.71L40.17 18.71L40.17 22ZM40.17 14.66L40.17 17.52L41.69 17.52Q42.44 17.52 42.86 17.15Q43.29 16.77 43.29 16.11L43.29 16.11Q43.29 15.43 42.90 15.05Q42.51 14.68 41.73 14.66L41.73 14.66L40.17 14.66ZM50.64 22L49.16 22L49.16 13.47L52.43 13.47Q53.86 13.47 54.70 14.21Q55.54 14.96 55.54 16.18L55.54 16.18Q55.54 17.44 54.71 18.13Q53.89 18.83 52.41 18.83L52.41 18.83L50.64 18.83L50.64 22ZM50.64 14.66L50.64 17.64L52.43 17.64Q53.22 17.64 53.63 17.27Q54.05 16.90 54.05 16.19L54.05 16.19Q54.05 15.50 53.63 15.09Q53.21 14.68 52.47 14.66L52.47 14.66L50.64 14.66ZM59.39 19.42L59.39 19.42L60.87 19.42Q60.87 20.15 61.35 20.55Q61.83 20.95 62.73 20.95L62.73 20.95Q63.50 20.95 63.89 20.63Q64.28 20.32 64.28 19.80L64.28 19.80Q64.28 19.24 63.88 18.94Q63.49 18.63 62.46 18.32Q61.43 18.01 60.82 17.63L60.82 17.63Q59.65 16.90 59.65 15.72L59.65 15.72Q59.65 14.69 60.49 14.02Q61.33 13.35 62.67 13.35L62.67 13.35Q63.56 13.35 64.26 13.68Q64.96 14.01 65.36 14.61Q65.76 15.22 65.76 15.96L65.76 15.96L64.28 15.96Q64.28 15.29 63.86 14.91Q63.44 14.54 62.66 14.54L62.66 14.54Q61.94 14.54 61.53 14.85Q61.13 15.16 61.13 15.71L61.13 15.71Q61.13 16.18 61.57 16.50Q62.00 16.81 63.00 17.10Q63.99 17.40 64.60 17.78Q65.20 18.16 65.48 18.65Q65.76 19.13 65.76 19.79L65.76 19.79Q65.76 20.86 64.94 21.49Q64.13 22.12 62.73 22.12L62.73 22.12Q61.80 22.12 61.02 21.77Q60.25 21.43 59.82 20.83Q59.39 20.22 59.39 19.42ZM71.73 14.66L69.10 14.66L69.10 13.47L75.86 13.47L75.86 14.66L73.20 14.66L73.20 22L71.73 22L71.73 14.66ZM81.66 18.86L78.79 13.47L80.44 13.47L82.40 17.51L84.37 13.47L86.01 13.47L83.15 18.86L83.15 22L81.66 22L81.66 18.86ZM95.28 22L89.92 22L89.92 13.47L91.40 13.47L91.40 20.82L95.28 20.82L95.28 22ZM104.98 22L99.40 22L99.40 13.47L104.94 13.47L104.94 14.66L100.88 14.66L100.88 17.02L104.39 17.02L104.39 18.19L100.88 18.19L100.88 20.82L104.98 20.82L104.98 22Z" fill="#FFFFFF"/><path class="svg__text" d="M135.49 22L130.95 22L130.95 13.60L135.25 13.60Q136.85 13.60 137.69 14.19Q138.54 14.79 138.54 15.79L138.54 15.79Q138.54 16.39 138.24 16.87Q137.94 17.34 137.40 17.62L137.40 17.62Q138.13 17.87 138.53 18.41Q138.94 18.94 138.94 19.70L138.94 19.70Q138.94 20.80 138.05 21.40Q137.16 22 135.49 22L135.49 22ZM133.30 18.58L133.30 20.28L135.30 20.28Q136.54 20.28 136.54 19.43L136.54 19.43Q136.54 18.58 135.30 18.58L135.30 18.58L133.30 18.58ZM133.30 15.31L133.30 16.94L134.93 16.94Q136.13 16.94 136.13 16.12L136.13 16.12Q136.13 15.31 134.93 15.31L134.93 15.31L133.30 15.31ZM146.04 22L143.66 22L143.66 13.60L147.50 13.60Q148.64 13.60 149.48 13.98Q150.32 14.35 150.78 15.06Q151.23 15.76 151.23 16.71L151.23 16.71Q151.23 17.62 150.81 18.30Q150.38 18.98 149.59 19.36L149.59 19.36L151.40 22L148.85 22L147.33 19.77L146.04 19.77L146.04 22ZM146.04 15.47L146.04 17.93L147.35 17.93Q148.09 17.93 148.46 17.61Q148.83 17.29 148.83 16.71L148.83 16.71Q148.83 16.12 148.46 15.79Q148.09 15.47 147.35 15.47L147.35 15.47L146.04 15.47ZM157.44 22L155.01 22L158.72 13.60L161.07 13.60L164.78 22L162.31 22L161.65 20.37L158.10 20.37L157.44 22ZM159.88 15.93L158.79 18.61L160.95 18.61L159.88 15.93ZM171.27 22L168.93 22L168.93 13.60L170.89 13.60L174.60 18.07L174.60 13.60L176.93 13.60L176.93 22L174.98 22L171.27 17.52L171.27 22ZM186.06 22L182.09 22L182.09 13.60L186.06 13.60Q187.44 13.60 188.51 14.12Q189.58 14.63 190.17 15.58Q190.75 16.53 190.75 17.80L190.75 17.80Q190.75 19.07 190.17 20.02Q189.58 20.97 188.51 21.48Q187.44 22 186.06 22L186.06 22ZM184.47 15.50L184.47 20.10L185.97 20.10Q187.05 20.10 187.70 19.49Q188.35 18.88 188.35 17.80L188.35 17.80Q188.35 16.72 187.70 16.11Q187.05 15.50 185.97 15.50L185.97 15.50L184.47 15.50ZM204.79 22L202.46 22L202.46 13.60L204.41 13.60L208.12 18.07L208.12 13.60L210.45 13.60L210.45 22L208.50 22L204.79 17.52L204.79 22ZM222.35 22L215.61 22L215.61 13.60L222.20 13.60L222.20 15.44L217.97 15.44L217.97 16.85L221.70 16.85L221.70 18.63L217.97 18.63L217.97 20.17L222.35 20.17L222.35 22ZM229.24 22L226.51 13.60L228.96 13.60L230.65 18.96L232.43 13.60L234.61 13.60L236.31 19.01L238.07 13.60L240.34 13.60L237.61 22L235.07 22L233.46 16.89L231.78 22L229.24 22Z" fill="#FFFFFF" x="129.76"/></svg>