<?xml version="1.0" encoding="UTF-8" standalone="no"?>
<svg
   width="99.699997"
   height="17.386646"
   viewBox="0 0 99.7 17.386631"
   version="1.1"
   id="svg270"
   sodipodi:docname="marpstyle-ready.svg"
   inkscape:version="1.2.2 (732a01da63, 2022-12-09)"
   xmlns:inkscape="http://www.inkscape.org/namespaces/inkscape"
   xmlns:sodipodi="http://sodipodi.sourceforge.net/DTD/sodipodi-0.dtd"
   xmlns="http://www.w3.org/2000/svg"
   xmlns:svg="http://www.w3.org/2000/svg">
  <defs
     id="defs274" />
  <sodipodi:namedview
     id="namedview272"
     pagecolor="#ffffff"
     bordercolor="#999999"
     borderopacity="1"
     inkscape:showpageshadow="0"
     inkscape:pageopacity="0"
     inkscape:pagecheckerboard="0"
     inkscape:deskcolor="#d1d1d1"
     showgrid="false"
     inkscape:zoom="6.2132537"
     inkscape:cx="72.66724"
     inkscape:cy="17.623616"
     inkscape:window-width="1387"
     inkscape:window-height="1032"
     inkscape:window-x="2101"
     inkscape:window-y="18"
     inkscape:window-maximized="0"
     inkscape:current-layer="svg270" />
  <rect
     class="svg__rect"
     x="0"
     y="0"
     width="59.380001"
     height="17.5"
     fill="#31c4f3"
     id="rect262"
     style="stroke-width:0.5" />
  <rect
     class="svg__rect"
     x="58.379997"
     y="0"
     width="41.970001"
     height="17.5"
     fill="#389ad5"
     id="rect264"
     style="stroke-width:0.5" />
  <path
     class="svg__text"
     d="m 7.844998,11 h -0.735 V 6.735 h 0.96 l 1.23,3.27 1.23,-3.27 h 0.955 V 11 h -0.74 V 9.595 l 0.075,-1.88 -1.26,3.285 h -0.53 l -1.255,-3.285 0.07,1.88 z m 6.4,0 h -0.77 l 1.61,-4.265 h 0.665 l 1.615,4.265 h -0.775 l -0.345,-0.995 h -1.655 z m 1.17,-3.36 -0.615,1.77 h 1.235 z m 4.67,3.36 h -0.74 V 6.735 h 1.5 q 0.735,0 1.14,0.33 0.4,0.33 0.4,0.96 v 0 q 0,0.425 -0.21,0.715 -0.205,0.29 -0.575,0.445 v 0 l 0.96,1.775 V 11 h -0.795 l -0.855,-1.645 h -0.825 z m 0,-3.67 v 1.43 h 0.76 q 0.375,0 0.585,-0.185 0.215,-0.19 0.215,-0.52 v 0 q 0,-0.34 -0.195,-0.53 -0.195,-0.185 -0.585,-0.195 v 0 z m 5.235,3.67 h -0.74 V 6.735 h 1.635 q 0.715,0 1.135,0.37 0.42,0.375 0.42,0.985 v 0 q 0,0.63 -0.415,0.975 -0.41,0.35 -1.15,0.35 v 0 h -0.885 z m 0,-3.67 v 1.49 h 0.895 q 0.395,0 0.6,-0.185 0.21,-0.185 0.21,-0.54 v 0 q 0,-0.345 -0.21,-0.55 -0.21,-0.205 -0.58,-0.215 v 0 z m 4.375,2.38 v 0 h 0.74 q 0,0.365 0.24,0.565 0.24,0.2 0.69,0.2 v 0 q 0.385,0 0.58,-0.16 0.195,-0.155 0.195,-0.415 v 0 q 0,-0.28 -0.2,-0.43 -0.195,-0.155 -0.71,-0.31 -0.515,-0.155 -0.82,-0.345 v 0 q -0.585,-0.365 -0.585,-0.955 v 0 q 0,-0.515 0.42,-0.85 0.42,-0.335 1.09,-0.335 v 0 q 0.445,0 0.795,0.165 0.35,0.165 0.55,0.465 0.2,0.305 0.2,0.675 v 0 h -0.74 q 0,-0.335 -0.21,-0.525 -0.21,-0.185 -0.6,-0.185 v 0 q -0.36,0 -0.565,0.155 -0.2,0.155 -0.2,0.43 v 0 q 0,0.235 0.22,0.395 0.215,0.155 0.715,0.3 0.495,0.15 0.8,0.34 0.3,0.19 0.44,0.435 0.14,0.24 0.14,0.57 v 0 q 0,0.535 -0.41,0.85 -0.405,0.315 -1.105,0.315 v 0 q -0.465,0 -0.855,-0.175 -0.385,-0.17 -0.6,-0.47 -0.215,-0.305 -0.215,-0.705 z m 6.17,-2.38 h -1.315 V 6.735 h 3.38 V 7.33 h -1.33 V 11 h -0.735 z m 4.965,2.1 -1.435,-2.695 h 0.825 l 0.98,2.02 0.985,-2.02 h 0.82 l -1.43,2.695 V 11 h -0.745 z m 6.81,1.57 h -2.68 V 6.735 h 0.74 v 3.675 h 1.94 z m 4.849999,0 H 49.699998 V 6.735 h 2.769999 V 7.33 h -2.03 v 1.18 h 1.755 v 0.585 h -1.755 v 1.315 h 2.05 z"
     fill="#ffffff"
     id="path266"
     style="stroke-width:0.5" />
  <path
     class="svg__text"
     d="m 66.664997,11 h -1.19 V 6.8 h 1.92 q 0.57,0 0.99,0.19 0.42,0.185 0.65,0.54 0.225,0.35 0.225,0.825 v 0 q 0,0.455 -0.21,0.795 -0.215,0.34 -0.61,0.53 v 0 l 0.905,1.32 h -1.27 l -0.765,-1.115 h -0.645 z m 0,-3.265 v 1.23 h 0.66 q 0.365,0 0.55,-0.16 0.185,-0.16 0.185,-0.45 v 0 q 0,-0.295 -0.185,-0.46 -0.185,-0.16 -0.55,-0.16 v 0 z m 8.365,3.265 h -3.375 V 6.8 h 3.295 v 0.92 h -2.115 v 0.705 h 1.865 v 0.89 h -1.865 v 0.77 h 2.195 z m 3.11,0 h -1.215 l 1.855,-4.2 h 1.17 l 1.86,4.2 h -1.235 l -0.33,-0.815 h -1.775 z m 1.22,-3.035 -0.545,1.34 h 1.08 z m 6.515,3.035 h -1.99 V 6.8 h 1.99 q 0.69,0 1.225,0.26 0.53,0.255 0.825,0.73 0.295,0.475 0.295,1.11 v 0 q 0,0.635 -0.295,1.11 -0.295,0.475 -0.825,0.73 -0.535,0.26 -1.225,0.26 z m -0.8,-3.25 v 2.3 h 0.75 q 0.54,0 0.865,-0.305 0.33,-0.305 0.33,-0.845 v 0 q 0,-0.54 -0.33,-0.845 -0.325,-0.305 -0.865,-0.305 v 0 z m 6.575,1.725 -1.605,-2.675 h 1.255 l 0.995,1.67 0.995,-1.67 h 1.155 l -1.61,2.695 V 11 h -1.185 z"
     fill="#ffffff"
     x="129.76"
     id="path268"
     style="stroke-width:0.5" />
</svg>
