<?xml version="1.0" encoding="UTF-8" standalone="no"?>
<svg
   width="126.15"
   height="17.510412"
   viewBox="0 0 126.15001 17.510426"
   version="1.1"
   id="svg10"
   sodipodi:docname="marpstyle-brand-new2.svg"
   inkscape:version="1.2.2 (732a01da63, 2022-12-09)"
   xmlns:inkscape="http://www.inkscape.org/namespaces/inkscape"
   xmlns:sodipodi="http://sodipodi.sourceforge.net/DTD/sodipodi-0.dtd"
   xmlns="http://www.w3.org/2000/svg"
   xmlns:svg="http://www.w3.org/2000/svg">
  <defs
     id="defs14" />
  <sodipodi:namedview
     id="namedview12"
     pagecolor="#ffffff"
     bordercolor="#999999"
     borderopacity="1"
     inkscape:showpageshadow="0"
     inkscape:pageopacity="0"
     inkscape:pagecheckerboard="0"
     inkscape:deskcolor="#d1d1d1"
     showgrid="false"
     inkscape:zoom="4.9454691"
     inkscape:cx="107.1688"
     inkscape:cy="17.59186"
     inkscape:window-width="1920"
     inkscape:window-height="1009"
     inkscape:window-x="1912"
     inkscape:window-y="-1"
     inkscape:window-maximized="1"
     inkscape:current-layer="svg10" />
  <rect
     class="svg__rect"
     x="0.15165396"
     y="-0.14703266"
     width="59.380001"
     height="17.5"
     fill="#fc677f"
     id="rect2"
     style="stroke-width:0.5" />
  <rect
     class="svg__rect"
     x="58.531658"
     y="-0.14703266"
     width="67.695"
     height="17.5"
     fill="#c13b3a"
     id="rect4"
     style="stroke-width:0.5" />
  <path
     class="svg__text"
     d="m 7.9966555,10.852967 h -0.735 V 6.5879673 h 0.96 l 1.23,3.27 1.2299995,-3.27 h 0.955 v 4.2649997 h -0.74 V 9.4479673 l 0.075,-1.88 -1.2599995,3.2849997 h -0.53 l -1.255,-3.2849997 0.07,1.88 z m 6.3999995,0 h -0.77 l 1.61,-4.2649997 h 0.665 l 1.615,4.2649997 h -0.775 l -0.345,-0.9949997 h -1.655 z m 1.17,-3.3599997 -0.615,1.77 h 1.235 z m 4.67,3.3599997 h -0.74 V 6.5879673 h 1.5 q 0.735,0 1.14,0.33 0.4,0.33 0.4,0.96 v 0 q 0,0.425 -0.21,0.715 -0.205,0.29 -0.575,0.445 v 0 l 0.96,1.7749997 v 0.04 h -0.795 l -0.855,-1.6449997 h -0.825 z m 0,-3.6699997 v 1.43 h 0.76 q 0.375,0 0.585,-0.185 0.215,-0.19 0.215,-0.52 v 0 q 0,-0.34 -0.195,-0.53 -0.195,-0.185 -0.585,-0.195 v 0 z m 5.235,3.6699997 h -0.74 V 6.5879673 h 1.635 q 0.715,0 1.135,0.37 0.42,0.375 0.42,0.985 v 0 q 0,0.63 -0.415,0.975 -0.41,0.35 -1.15,0.35 v 0 h -0.885 z m 0,-3.6699997 v 1.49 h 0.895 q 0.395,0 0.6,-0.185 0.21,-0.185 0.21,-0.54 v 0 q 0,-0.345 -0.21,-0.55 -0.21,-0.205 -0.58,-0.215 v 0 z m 4.375,2.38 v 0 h 0.74 q 0,0.365 0.24,0.5649997 0.24,0.2 0.69,0.2 v 0 q 0.385,0 0.58,-0.16 0.195,-0.155 0.195,-0.4149997 v 0 q 0,-0.28 -0.2,-0.43 -0.195,-0.155 -0.71,-0.31 -0.515,-0.155 -0.82,-0.345 v 0 q -0.585,-0.365 -0.585,-0.955 v 0 q 0,-0.515 0.42,-0.85 0.42,-0.335 1.09,-0.335 v 0 q 0.445,0 0.795,0.165 0.35,0.165 0.55,0.465 0.2,0.305 0.2,0.675 v 0 h -0.74 q 0,-0.335 -0.21,-0.525 -0.21,-0.185 -0.6,-0.185 v 0 q -0.36,0 -0.565,0.155 -0.2,0.155 -0.2,0.43 v 0 q 0,0.235 0.22,0.395 0.215,0.155 0.715,0.3 0.495,0.15 0.8,0.34 0.3,0.19 0.44,0.435 0.14,0.24 0.14,0.57 v 0 q 0,0.5349997 -0.41,0.8499997 -0.405,0.315 -1.105,0.315 v 0 q -0.465,0 -0.855,-0.175 -0.385,-0.17 -0.6,-0.47 -0.215,-0.3049997 -0.215,-0.7049997 z m 6.17,-2.38 h -1.315 v -0.595 h 3.38 v 0.595 h -1.33 v 3.6699997 h -0.735 z m 4.965,2.1 -1.435,-2.695 h 0.825 l 0.98,2.02 0.985,-2.02 h 0.82 l -1.43,2.695 v 1.5699997 h -0.745 z m 6.81,1.5699997 h -2.68 V 6.5879673 h 0.74 v 3.6749997 h 1.94 z m 4.85,0 h -2.79 V 6.5879673 h 2.77 v 0.595 h -2.03 v 1.18 h 1.755 v 0.585 h -1.755 v 1.3149997 h 2.05 z"
     fill="#ffffff"
     id="path6"
     style="stroke-width:0.5" />
  <path
     class="svg__text"
     d="m 67.896655,10.852967 h -2.27 V 6.6529673 h 2.15 q 0.8,0 1.22,0.295 0.425,0.3 0.425,0.8 v 0 q 0,0.3 -0.15,0.54 -0.15,0.235 -0.42,0.375 v 0 q 0.365,0.125 0.565,0.395 0.205,0.265 0.205,0.645 v 0 q 0,0.5499997 -0.445,0.8499997 -0.445,0.3 -1.28,0.3 z m -1.095,-1.7099997 v 0.85 h 1 q 0.62,0 0.62,-0.425 v 0 q 0,-0.425 -0.62,-0.425 v 0 z m 0,-1.635 v 0.815 h 0.815 q 0.6,0 0.6,-0.41 v 0 q 0,-0.405 -0.6,-0.405 v 0 z m 6.37,3.3449997 h -1.19 V 6.6529673 h 1.92 q 0.57,0 0.99,0.19 0.42,0.185 0.65,0.54 0.225,0.35 0.225,0.825 v 0 q 0,0.455 -0.21,0.795 -0.215,0.34 -0.61,0.53 v 0 l 0.905,1.3199997 h -1.275 l -0.76,-1.1149997 h -0.645 z m 0,-3.2649997 v 1.23 h 0.655 q 0.37,0 0.555,-0.16 0.185,-0.16 0.185,-0.45 v 0 q 0,-0.295 -0.185,-0.46 -0.185,-0.16 -0.555,-0.16 v 0 z m 5.7,3.2649997 h -1.215 l 1.855,-4.1999997 h 1.175 l 1.855,4.1999997 h -1.235 l -0.33,-0.815 h -1.775 z m 1.22,-3.0349997 -0.545,1.34 h 1.08 z m 5.695,3.0349997 h -1.17 V 6.6529673 h 0.98 l 1.855,2.235 v -2.235 h 1.165 v 4.1999997 h -0.975 l -1.855,-2.2399997 z m 7.395,0 h -1.985 V 6.6529673 h 1.985 q 0.69,0 1.225,0.26 0.535,0.255 0.83,0.73 0.29,0.475 0.29,1.11 v 0 q 0,0.635 -0.29,1.11 -0.295,0.4749997 -0.83,0.7299997 -0.535,0.26 -1.225,0.26 z m -0.795,-3.2499997 v 2.3 h 0.75 q 0.54,0 0.865,-0.305 0.325,-0.305 0.325,-0.845 v 0 q 0,-0.54 -0.325,-0.845 -0.325,-0.305 -0.865,-0.305 v 0 z m 10.160005,3.2499997 h -1.165 V 6.6529673 h 0.975 l 1.855,2.235 v -2.235 h 1.165 v 4.1999997 h -0.975 l -1.855,-2.2399997 z m 8.78,0 h -3.37 V 6.6529673 h 3.295 v 0.92 h -2.115 v 0.705 h 1.865 v 0.89 h -1.865 v 0.77 h 2.19 z m 3.445,0 -1.365,-4.1999997 h 1.225 l 0.845,2.68 0.89,-2.68 h 1.09 l 0.85,2.705 0.88,-2.705 h 1.135 l -1.365,4.1999997 h -1.27 l -0.805,-2.5549997 -0.84,2.5549997 z"
     fill="#ffffff"
     x="129.76"
     id="path8"
     style="stroke-width:0.5" />
</svg>
