<?xml version="1.0" encoding="UTF-8" standalone="no"?>
<svg
   width="151.29001"
   height="21"
   viewBox="0 0 151.29002 21.000017"
   version="1.1"
   id="svg10"
   sodipodi:docname="marpstyle-brand-new.svg"
   inkscape:version="1.2.2 (732a01da63, 2022-12-09)"
   xmlns:inkscape="http://www.inkscape.org/namespaces/inkscape"
   xmlns:sodipodi="http://sodipodi.sourceforge.net/DTD/sodipodi-0.dtd"
   xmlns="http://www.w3.org/2000/svg"
   xmlns:svg="http://www.w3.org/2000/svg">
  <defs
     id="defs14" />
  <sodipodi:namedview
     id="namedview12"
     pagecolor="#ffffff"
     bordercolor="#999999"
     borderopacity="1"
     inkscape:showpageshadow="0"
     inkscape:pageopacity="0"
     inkscape:pagecheckerboard="0"
     inkscape:deskcolor="#d1d1d1"
     showgrid="false"
     inkscape:zoom="4.9454691"
     inkscape:cx="119.70553"
     inkscape:cy="19.613913"
     inkscape:window-width="1920"
     inkscape:window-height="1009"
     inkscape:window-x="1912"
     inkscape:window-y="-1"
     inkscape:window-maximized="1"
     inkscape:current-layer="svg10" />
  <rect
     class="svg__rect"
     x="0"
     y="0"
     width="71.256004"
     height="21"
     fill="#fc677f"
     id="rect2"
     style="stroke-width:0.6" />
  <rect
     class="svg__rect"
     x="70.056007"
     y="0"
     width="81.234001"
     height="21"
     fill="#c13b3a"
     id="rect4"
     style="stroke-width:0.6" />
  <path
     class="svg__text"
     d="m 9.4140022,13.2 h -0.882 V 8.0819999 h 1.152 L 11.160002,12.006 l 1.476,-3.9240001 h 1.146 V 13.2 h -0.888 v -1.686 l 0.09,-2.2560001 -1.512,3.9420001 h -0.636 L 9.3300022,9.2579999 9.4140022,11.514 Z m 7.6799998,0 h -0.924 l 1.932,-5.1180001 h 0.798 L 20.838002,13.2 h -0.93 l -0.414,-1.194 h -1.986 z m 1.404,-4.0320001 -0.738,2.1240001 h 1.482 z M 24.102002,13.2 h -0.888 V 8.0819999 h 1.8 q 0.882,0 1.368,0.396 0.48,0.396 0.48,1.152 v 0 q 0,0.5100001 -0.252,0.8580001 -0.246,0.348 -0.69,0.534 v 0 l 1.152,2.13 V 13.2 h -0.954 l -1.026,-1.974 h -0.99 z m 0,-4.4040001 V 10.512 h 0.912 q 0.45,0 0.702,-0.222 0.258,-0.228 0.258,-0.6240001 v 0 q 0,-0.408 -0.234,-0.636 -0.234,-0.222 -0.702,-0.234 v 0 z M 30.384002,13.2 h -0.888 V 8.0819999 h 1.962 q 0.858,0 1.362,0.444 0.504,0.45 0.504,1.182 v 0 q 0,0.7560001 -0.498,1.1700001 -0.492,0.42 -1.38,0.42 v 0 h -1.062 z m 0,-4.4040001 V 10.584 h 1.074 q 0.474,0 0.72,-0.222 0.252,-0.222 0.252,-0.6480001 v 0 q 0,-0.414 -0.252,-0.66 -0.252,-0.246 -0.696,-0.258 v 0 z m 5.25,2.8560001 v 0 h 0.888 q 0,0.438 0.288,0.678 0.288,0.24 0.828,0.24 v 0 q 0.462,0 0.696,-0.192 0.234,-0.186 0.234,-0.498 v 0 q 0,-0.336 -0.24,-0.516 -0.234,-0.186 -0.852,-0.372 -0.618,-0.186 -0.984,-0.414 v 0 q -0.702,-0.438 -0.702,-1.1460001 v 0 q 0,-0.618 0.504,-1.02 0.504,-0.402 1.308,-0.402 v 0 q 0.534,0 0.954,0.198 0.42,0.198 0.66,0.558 0.24,0.366 0.24,0.81 v 0 h -0.888 q 0,-0.402 -0.252,-0.63 -0.252,-0.222 -0.72,-0.222 v 0 q -0.432,0 -0.678,0.186 -0.24,0.186 -0.24,0.516 v 0 q 0,0.282 0.264,0.474 0.258,0.1860001 0.858,0.3600001 0.594,0.18 0.96,0.408 0.36,0.228 0.528,0.522 0.168,0.288 0.168,0.684 v 0 q 0,0.642 -0.492,1.02 -0.486,0.378 -1.326,0.378 v 0 q -0.558,0 -1.026,-0.21 -0.462,-0.204 -0.72,-0.564 -0.258,-0.366 -0.258,-0.846 z m 7.404,-2.8560001 h -1.578 v -0.714 h 4.056 v 0.714 h -1.596 V 13.2 h -0.882 z m 5.958,2.5200001 -1.722,-3.2340001 h 0.99 l 1.176,2.4240001 1.182,-2.4240001 h 0.984 L 49.890002,11.316 V 13.2 h -0.894 z m 8.172,1.884 h -3.216 V 8.0819999 h 0.888 V 12.492 h 2.328 z m 5.82,0 h -3.348 V 8.0819999 h 3.324 v 0.714 h -2.436 V 10.212 h 2.106 v 0.702 h -2.106 v 1.578 h 2.46 z"
     fill="#ffffff"
     id="path6"
     style="stroke-width:0.6" />
  <path
     class="svg__text"
     d="m 81.294002,13.2 h -2.724 V 8.1599999 h 2.58 q 0.96,0 1.464,0.354 0.51,0.36 0.51,0.96 v 0 q 0,0.36 -0.18,0.6480001 -0.18,0.282 -0.504,0.45 v 0 q 0.438,0.15 0.678,0.474 0.246,0.318 0.246,0.774 v 0 q 0,0.66 -0.534,1.02 -0.534,0.36 -1.536,0.36 z m -1.314,-2.052 v 1.02 h 1.2 q 0.744,0 0.744,-0.51 v 0 q 0,-0.51 -0.744,-0.51 v 0 z m 0,-1.9620001 V 10.164 h 0.978 q 0.72,0 0.72,-0.4920001 v 0 q 0,-0.486 -0.72,-0.486 v 0 z M 87.624002,13.2 h -1.428 V 8.1599999 h 2.304 q 0.684,0 1.188,0.228 0.504,0.222 0.78,0.648 0.27,0.42 0.27,0.9900001 v 0 q 0,0.546 -0.252,0.954 -0.258,0.408 -0.732,0.636 v 0 l 1.086,1.584 h -1.53 l -0.912,-1.338 h -0.774 z m 0,-3.9180001 V 10.758 h 0.786 q 0.444,0 0.666,-0.192 0.222,-0.192 0.222,-0.54 v 0 q 0,-0.3540001 -0.222,-0.5520001 -0.222,-0.192 -0.666,-0.192 v 0 z m 6.84,3.9180001 h -1.458 l 2.226,-5.0400001 h 1.41 L 98.868002,13.2 h -1.482 l -0.396,-0.978 h -2.13 z m 1.464,-3.6420001 -0.654,1.6080001 h 1.296 z M 102.762,13.2 h -1.404 V 8.1599999 h 1.176 L 104.76,10.842 V 8.1599999 h 1.398 V 13.2 h -1.17 l -2.226,-2.688 z m 8.874,0 h -2.382 V 8.1599999 h 2.382 q 0.828,0 1.47,0.312 0.642,0.306 0.996,0.876 0.348,0.57 0.348,1.3320001 v 0 q 0,0.762 -0.348,1.332 -0.354,0.57 -0.996,0.876 -0.642,0.312 -1.47,0.312 z M 110.682,9.2999999 V 12.06 h 0.9 q 0.648,0 1.038,-0.366 0.39,-0.366 0.39,-1.014 v 0 q 0,-0.648 -0.39,-1.0140001 -0.39,-0.366 -1.038,-0.366 v 0 z M 122.87401,13.2 h -1.398 V 8.1599999 h 1.17 l 2.226,2.6820001 V 8.1599999 h 1.398 V 13.2 h -1.17 l -2.226,-2.688 z m 10.536,0 h -4.044 V 8.1599999 h 3.954 v 1.104 h -2.538 V 10.11 h 2.238 v 1.068 h -2.238 v 0.924 h 2.628 z m 4.134,0 -1.638,-5.0400001 h 1.47 l 1.014,3.2160001 1.068,-3.2160001 h 1.308 l 1.02,3.2460001 1.056,-3.2460001 h 1.362 L 142.56601,13.2 h -1.524 l -0.966,-3.066 -1.008,3.066 z"
     fill="#ffffff"
     x="129.76"
     id="path8"
     style="stroke-width:0.6" />
</svg>
