<?xml version="1.0" encoding="UTF-8" standalone="no"?>
<svg
   width="120.42"
   height="21"
   viewBox="0 0 120.42 20.999982"
   version="1.1"
   id="svg270"
   sodipodi:docname="marpstyle-ready.svg"
   inkscape:version="1.2.2 (732a01da63, 2022-12-09)"
   xmlns:inkscape="http://www.inkscape.org/namespaces/inkscape"
   xmlns:sodipodi="http://sodipodi.sourceforge.net/DTD/sodipodi-0.dtd"
   xmlns="http://www.w3.org/2000/svg"
   xmlns:svg="http://www.w3.org/2000/svg">
  <defs
     id="defs274" />
  <sodipodi:namedview
     id="namedview272"
     pagecolor="#ffffff"
     bordercolor="#999999"
     borderopacity="1"
     inkscape:showpageshadow="0"
     inkscape:pageopacity="0"
     inkscape:pagecheckerboard="0"
     inkscape:deskcolor="#d1d1d1"
     showgrid="false"
     inkscape:zoom="6.2132537"
     inkscape:cx="54.882678"
     inkscape:cy="19.474499"
     inkscape:window-width="1920"
     inkscape:window-height="1009"
     inkscape:window-x="1912"
     inkscape:window-y="-1"
     inkscape:window-maximized="1"
     inkscape:current-layer="svg270" />
  <rect
     class="svg__rect"
     x="0"
     y="0"
     width="71.256004"
     height="21"
     fill="#31c4f3"
     id="rect262"
     style="stroke-width:0.6" />
  <rect
     class="svg__rect"
     x="70.056"
     y="0"
     width="50.364002"
     height="21"
     fill="#389ad5"
     id="rect264"
     style="stroke-width:0.6" />
  <path
     class="svg__text"
     d="m 9.4139976,13.2 h -0.882 V 8.082 h 1.152 l 1.4760004,3.924 1.476,-3.924 h 1.146 V 13.2 h -0.888 v -1.686 l 0.09,-2.256 -1.512,3.942 h -0.636 l -1.5060004,-3.942 0.084,2.256 z m 7.6800004,0 h -0.924 l 1.932,-5.118 h 0.798 l 1.938,5.118 h -0.93 l -0.414,-1.194 h -1.986 z m 1.404,-4.032 -0.738,2.124 h 1.482 z m 5.604,4.032 h -0.888 V 8.082 h 1.8 q 0.882,0 1.368,0.396 0.48,0.396 0.48,1.152 v 0 q 0,0.51 -0.252,0.858 -0.246,0.348 -0.69,0.534 v 0 l 1.152,2.13 V 13.2 h -0.954 l -1.026,-1.974 h -0.99 z m 0,-4.404 v 1.716 h 0.912 q 0.45,0 0.702,-0.222 0.258,-0.228 0.258,-0.624 v 0 q 0,-0.408 -0.234,-0.636 -0.234,-0.222 -0.702,-0.234 v 0 z m 6.282,4.404 h -0.888 V 8.082 h 1.962 q 0.858,0 1.362,0.444 0.504,0.45 0.504,1.182 v 0 q 0,0.756 -0.498,1.17 -0.492,0.42 -1.38,0.42 v 0 h -1.062 z m 0,-4.404 v 1.788 h 1.074 q 0.474,0 0.72,-0.222 0.252,-0.222 0.252,-0.648 v 0 q 0,-0.414 -0.252,-0.66 -0.252,-0.246 -0.696,-0.258 v 0 z m 5.25,2.856 v 0 h 0.888 q 0,0.438 0.288,0.678 0.288,0.24 0.828,0.24 v 0 q 0.462,0 0.696,-0.192 0.234,-0.186 0.234,-0.498 v 0 q 0,-0.336 -0.24,-0.516 -0.234,-0.186 -0.852,-0.372 -0.618,-0.186 -0.984,-0.414 v 0 q -0.702,-0.438 -0.702,-1.146 v 0 q 0,-0.618 0.504,-1.02 0.504,-0.402 1.308,-0.402 v 0 q 0.534,0 0.954,0.198 0.42,0.198 0.66,0.558 0.24,0.366 0.24,0.81 v 0 h -0.888 q 0,-0.402 -0.252,-0.63 -0.252,-0.222 -0.72,-0.222 v 0 q -0.432,0 -0.678,0.186 -0.24,0.186 -0.24,0.516 v 0 q 0,0.282 0.264,0.474 0.258,0.186 0.858,0.36 0.594,0.18 0.96,0.408 0.36,0.228 0.528,0.522 0.168,0.288 0.168,0.684 v 0 q 0,0.642 -0.492,1.02 -0.486,0.378 -1.326,0.378 v 0 q -0.558,0 -1.026,-0.21 -0.462,-0.204 -0.72,-0.564 -0.258,-0.366 -0.258,-0.846 z m 7.404,-2.856 h -1.578 V 8.082 h 4.056 v 0.714 h -1.596 V 13.2 h -0.882 z m 5.958,2.52 -1.722,-3.234 h 0.99 l 1.176,2.424 1.182,-2.424 h 0.984 l -1.716,3.234 V 13.2 h -0.894 z m 8.172,1.884 h -3.216 V 8.082 h 0.888 v 4.41 h 2.328 z m 5.819999,0 H 59.639998 V 8.082 h 3.323999 v 0.714 h -2.436 v 1.416 h 2.106 v 0.702 h -2.106 v 1.578 h 2.46 z"
     fill="#ffffff"
     id="path266"
     style="stroke-width:0.6" />
  <path
     class="svg__text"
     d="m 79.997997,13.2 h -1.428 V 8.16 h 2.304 q 0.684,0 1.188,0.228 0.504,0.222 0.78,0.648 0.27,0.42 0.27,0.99 v 0 q 0,0.546 -0.252,0.954 -0.258,0.408 -0.732,0.636 v 0 l 1.086,1.584 h -1.524 l -0.918,-1.338 h -0.774 z m 0,-3.918 v 1.476 h 0.792 q 0.438,0 0.66,-0.192 0.222,-0.192 0.222,-0.54 v 0 q 0,-0.354 -0.222,-0.552 -0.222,-0.192 -0.66,-0.192 v 0 z m 10.038,3.918 h -4.05 V 8.16 h 3.954 v 1.104 h -2.538 v 0.846 h 2.238 v 1.068 h -2.238 v 0.924 h 2.634 z m 3.732,0 h -1.458 l 2.226,-5.04 h 1.404 l 2.232,5.04 h -1.482 l -0.396,-0.978 h -2.13 z m 1.464,-3.642 -0.654,1.608 h 1.296 z M 103.05,13.2 h -2.388 V 8.16 h 2.388 q 0.828,0 1.47,0.312 0.636,0.306 0.99,0.876 0.354,0.57 0.354,1.332 v 0 q 0,0.762 -0.354,1.332 -0.354,0.57 -0.99,0.876 -0.642,0.312 -1.47,0.312 z m -0.96,-3.9 v 2.76 h 0.9 q 0.648,0 1.038,-0.366 0.396,-0.366 0.396,-1.014 v 0 q 0,-0.648 -0.396,-1.014 Q 103.638,9.3 102.99,9.3 v 0 z m 7.89,2.07 -1.926,-3.21 h 1.506 l 1.194,2.004 1.194,-2.004 h 1.386 l -1.932,3.234 V 13.2 h -1.422 z"
     fill="#ffffff"
     x="129.76"
     id="path268"
     style="stroke-width:0.6" />
</svg>
