<svg xmlns="http://www.w3.org/2000/svg" width="297.74" height="35" viewBox="0 0 297.74 35"><rect class="svg__rect" x="0" y="0" width="118.76" height="35" fill="#8FC965"/><rect class="svg__rect" x="116.76" y="0" width="180.98000000000002" height="35" fill="#419B5A"/><path class="svg__text" d="M15.69 22L14.22 22L14.22 13.47L16.14 13.47L18.60 20.01L21.06 13.47L22.97 13.47L22.97 22L21.49 22L21.49 19.19L21.64 15.43L19.12 22L18.06 22L15.55 15.43L15.69 19.19L15.69 22ZM28.49 22L26.95 22L30.17 13.47L31.50 13.47L34.73 22L33.18 22L32.49 20.01L29.18 20.01L28.49 22ZM30.83 15.28L29.60 18.82L32.07 18.82L30.83 15.28ZM40.17 22L38.69 22L38.69 13.47L41.69 13.47Q43.16 13.47 43.97 14.13Q44.77 14.79 44.77 16.05L44.77 16.05Q44.77 16.90 44.35 17.48Q43.94 18.06 43.20 18.37L43.20 18.37L45.12 21.92L45.12 22L43.53 22L41.82 18.71L40.17 18.71L40.17 22ZM40.17 14.66L40.17 17.52L41.69 17.52Q42.44 17.52 42.86 17.15Q43.29 16.77 43.29 16.11L43.29 16.11Q43.29 15.43 42.90 15.05Q42.51 14.68 41.73 14.66L41.73 14.66L40.17 14.66ZM50.64 22L49.16 22L49.16 13.47L52.43 13.47Q53.86 13.47 54.70 14.21Q55.54 14.96 55.54 16.18L55.54 16.18Q55.54 17.44 54.71 18.13Q53.89 18.83 52.41 18.83L52.41 18.83L50.64 18.83L50.64 22ZM50.64 14.66L50.64 17.64L52.43 17.64Q53.22 17.64 53.63 17.27Q54.05 16.90 54.05 16.19L54.05 16.19Q54.05 15.50 53.63 15.09Q53.21 14.68 52.47 14.66L52.47 14.66L50.64 14.66ZM59.39 19.42L59.39 19.42L60.87 19.42Q60.87 20.15 61.35 20.55Q61.83 20.95 62.73 20.95L62.73 20.95Q63.50 20.95 63.89 20.63Q64.28 20.32 64.28 19.80L64.28 19.80Q64.28 19.24 63.88 18.94Q63.49 18.63 62.46 18.32Q61.43 18.01 60.82 17.63L60.82 17.63Q59.65 16.90 59.65 15.72L59.65 15.72Q59.65 14.69 60.49 14.02Q61.33 13.35 62.67 13.35L62.67 13.35Q63.56 13.35 64.26 13.68Q64.96 14.01 65.36 14.61Q65.76 15.22 65.76 15.96L65.76 15.96L64.28 15.96Q64.28 15.29 63.86 14.91Q63.44 14.54 62.66 14.54L62.66 14.54Q61.94 14.54 61.53 14.85Q61.13 15.16 61.13 15.71L61.13 15.71Q61.13 16.18 61.57 16.50Q62.00 16.81 63.00 17.10Q63.99 17.40 64.60 17.78Q65.20 18.16 65.48 18.65Q65.76 19.13 65.76 19.79L65.76 19.79Q65.76 20.86 64.94 21.49Q64.13 22.12 62.73 22.12L62.73 22.12Q61.80 22.12 61.02 21.77Q60.25 21.43 59.82 20.83Q59.39 20.22 59.39 19.42ZM71.73 14.66L69.10 14.66L69.10 13.47L75.86 13.47L75.86 14.66L73.20 14.66L73.20 22L71.73 22L71.73 14.66ZM81.66 18.86L78.79 13.47L80.44 13.47L82.40 17.51L84.37 13.47L86.01 13.47L83.15 18.86L83.15 22L81.66 22L81.66 18.86ZM95.28 22L89.92 22L89.92 13.47L91.40 13.47L91.40 20.82L95.28 20.82L95.28 22ZM104.98 22L99.40 22L99.40 13.47L104.94 13.47L104.94 14.66L100.88 14.66L100.88 17.02L104.39 17.02L104.39 18.19L100.88 18.19L100.88 20.82L104.98 20.82L104.98 22Z" fill="#FFFFFF"/><path class="svg__text" d="M130.88 18.26L130.88 18.26L130.88 13.60L133.26 13.60L133.26 18.19Q133.26 20.20 134.85 20.20L134.85 20.20Q136.43 20.20 136.43 18.19L136.43 18.19L136.43 13.60L138.78 13.60L138.78 18.26Q138.78 20.13 137.74 21.15Q136.70 22.17 134.83 22.17L134.83 22.17Q132.95 22.17 131.91 21.15Q130.88 20.13 130.88 18.26ZM146.19 22L143.86 22L143.86 13.60L145.82 13.60L149.53 18.07L149.53 13.60L151.85 13.60L151.85 22L149.90 22L146.19 17.52L146.19 22ZM160.99 22L157.02 22L157.02 13.60L160.99 13.60Q162.37 13.60 163.44 14.12Q164.50 14.63 165.09 15.58Q165.68 16.53 165.68 17.80L165.68 17.80Q165.68 19.07 165.09 20.02Q164.50 20.97 163.44 21.48Q162.37 22 160.99 22L160.99 22ZM159.40 15.50L159.40 20.10L160.90 20.10Q161.97 20.10 162.63 19.49Q163.28 18.88 163.28 17.80L163.28 17.80Q163.28 16.72 162.63 16.11Q161.97 15.50 160.90 15.50L160.90 15.50L159.40 15.50ZM177.15 22L170.41 22L170.41 13.60L177.00 13.60L177.00 15.44L172.77 15.44L172.77 16.85L176.50 16.85L176.50 18.63L172.77 18.63L172.77 20.17L177.15 20.17L177.15 22ZM184.34 22L181.96 22L181.96 13.60L185.80 13.60Q186.95 13.60 187.78 13.98Q188.62 14.35 189.08 15.06Q189.54 15.76 189.54 16.71L189.54 16.71Q189.54 17.62 189.11 18.30Q188.68 18.98 187.89 19.36L187.89 19.36L189.70 22L187.16 22L185.63 19.77L184.34 19.77L184.34 22ZM184.34 15.47L184.34 17.93L185.66 17.93Q186.39 17.93 186.76 17.61Q187.13 17.29 187.13 16.71L187.13 16.71Q187.13 16.12 186.76 15.79Q186.39 15.47 185.66 15.47L185.66 15.47L184.34 15.47ZM203.67 22L201.30 22L201.30 13.60L205.14 13.60Q206.28 13.60 207.12 13.98Q207.96 14.35 208.41 15.06Q208.87 15.76 208.87 16.71L208.87 16.71Q208.87 17.62 208.44 18.30Q208.02 18.98 207.23 19.36L207.23 19.36L209.04 22L206.49 22L204.97 19.77L203.67 19.77L203.67 22ZM203.67 15.47L203.67 17.93L204.99 17.93Q205.73 17.93 206.10 17.61Q206.47 17.29 206.47 16.71L206.47 16.71Q206.47 16.12 206.10 15.79Q205.73 15.47 204.99 15.47L204.99 15.47L203.67 15.47ZM220.40 22L213.66 22L213.66 13.60L220.25 13.60L220.25 15.44L216.01 15.44L216.01 16.85L219.75 16.85L219.75 18.63L216.01 18.63L216.01 20.17L220.40 20.17L220.40 22ZM227.79 22L224.20 13.60L226.77 13.60L229.05 19.07L231.38 13.60L233.73 13.60L230.13 22L227.79 22ZM240.26 22L237.88 22L237.88 13.60L240.26 13.60L240.26 22ZM244.85 21.24L244.85 21.24L245.63 19.49Q246.19 19.86 246.93 20.09Q247.68 20.32 248.40 20.32L248.40 20.32Q249.76 20.32 249.77 19.64L249.77 19.64Q249.77 19.28 249.38 19.11Q248.99 18.93 248.12 18.74L248.12 18.74Q247.17 18.53 246.54 18.30Q245.90 18.06 245.45 17.55Q244.99 17.03 244.99 16.16L244.99 16.16Q244.99 15.39 245.41 14.77Q245.83 14.15 246.67 13.79Q247.50 13.43 248.71 13.43L248.71 13.43Q249.54 13.43 250.34 13.62Q251.15 13.80 251.76 14.17L251.76 14.17L251.03 15.93Q249.83 15.28 248.70 15.28L248.70 15.28Q247.99 15.28 247.67 15.49Q247.34 15.70 247.34 16.04L247.34 16.04Q247.34 16.37 247.73 16.54Q248.11 16.71 248.96 16.89L248.96 16.89Q249.92 17.10 250.55 17.33Q251.18 17.56 251.65 18.07Q252.11 18.58 252.11 19.46L252.11 19.46Q252.11 20.21 251.69 20.83Q251.27 21.44 250.43 21.80Q249.59 22.17 248.39 22.17L248.39 22.17Q247.37 22.17 246.41 21.92Q245.45 21.67 244.85 21.24ZM259.06 22L256.68 22L256.68 13.60L259.06 13.60L259.06 22ZM263.81 17.80L263.81 17.80Q263.81 16.55 264.41 15.55Q265.02 14.56 266.08 14.00Q267.14 13.43 268.47 13.43L268.47 13.43Q269.80 13.43 270.87 14.00Q271.93 14.56 272.54 15.55Q273.14 16.55 273.14 17.80L273.14 17.80Q273.14 19.05 272.54 20.04Q271.93 21.04 270.87 21.60Q269.81 22.17 268.47 22.17L268.47 22.17Q267.14 22.17 266.08 21.60Q265.02 21.04 264.41 20.04Q263.81 19.05 263.81 17.80ZM266.21 17.80L266.21 17.80Q266.21 18.51 266.51 19.05Q266.81 19.60 267.32 19.90Q267.84 20.20 268.47 20.20L268.47 20.20Q269.11 20.20 269.63 19.90Q270.14 19.60 270.44 19.05Q270.74 18.51 270.74 17.80L270.74 17.80Q270.74 17.09 270.44 16.54Q270.14 16 269.63 15.70Q269.11 15.40 268.47 15.40L268.47 15.40Q267.83 15.40 267.32 15.70Q266.81 16 266.51 16.54Q266.21 17.09 266.21 17.80ZM280.20 22L277.87 22L277.87 13.60L279.83 13.60L283.54 18.07L283.54 13.60L285.86 13.60L285.86 22L283.91 22L280.20 17.52L280.20 22Z" fill="#FFFFFF" x="129.76"/></svg>